<?xml version="1.0" standalone="no"?>
<!DOCTYPE svg PUBLIC "-//W3C//DTD SVG 20010904//EN"
 "http://www.w3.org/TR/2001/REC-SVG-20010904/DTD/svg10.dtd">
<svg version="1.0" xmlns="http://www.w3.org/2000/svg"
 width="700.000000pt" height="700.000000pt" viewBox="0 0 700.000000 700.000000"
 preserveAspectRatio="xMidYMid meet">
<metadata>
Created by potrace 1.11, written by Peter Selinger 2001-2013
</metadata>
<g transform="translate(0.000000,700.000000) scale(0.100000,-0.100000)"
fill="#000000" stroke="none">
<path d="M3195 6610 c-1033 -110 -1924 -700 -2422 -1605 -188 -340 -306 -709
-359 -1120 -23 -175 -23 -551 -1 -730 42 -339 153 -723 278 -965 29 -56 34
-61 37 -40 2 14 181 798 398 1743 217 945 394 1721 394 1723 0 3 528 3 1173 1
1302 -3 1215 1 1352 -70 67 -35 217 -180 250 -240 l19 -37 876 -2 c481 -2 876
-3 878 -2 1 1 -38 55 -87 120 -437 580 -1087 1002 -1783 1158 -248 56 -355 67
-648 71 -151 2 -311 0 -355 -5z"/>
<path d="M6337 4750 c-3 -14 -13 -72 -22 -130 l-17 -105 -87 -37 -86 -38 -386
0 -386 0 -138 -697 c-76 -384 -190 -963 -255 -1288 l-116 -590 -451 -3 -451
-2 -6 24 c-21 84 -17 84 -107 -1 -252 -242 -475 -345 -882 -407 -182 -28 -391
-34 -1276 -38 l-483 -3 150 -146 c380 -371 826 -627 1337 -769 111 -31 298
-68 460 -92 121 -17 609 -17 730 0 613 90 1057 271 1526 623 148 112 421 379
540 529 360 456 583 992 656 1575 22 179 22 555 -1 730 -39 299 -120 604 -225
848 -17 39 -19 40 -24 17z"/>
<path d="M2450 4618 c0 -2 -31 -139 -69 -305 l-68 -303 394 0 394 0 49 25
c105 53 168 135 200 260 35 136 19 237 -45 294 l-36 31 -409 0 c-226 0 -410
-1 -410 -2z"/>
<path d="M4330 4182 c-25 -47 -72 -124 -105 -171 -69 -99 -270 -304 -333 -341
-24 -14 -52 -32 -64 -40 -20 -16 -19 -17 22 -44 92 -61 232 -222 288 -331 14
-27 26 -45 28 -40 8 28 214 1049 212 1051 -2 1 -23 -36 -48 -84z"/>
<path d="M2125 3118 c-47 -199 -145 -636 -145 -645 0 -10 91 -13 444 -13 l443
0 70 35 c125 62 199 171 230 338 24 133 -5 229 -86 284 l-34 23 -458 0 -459 0
-5 -22z"/>
</g>
</svg>
