<svg xmlns="http://www.w3.org/2000/svg" xmlns:xlink="http://www.w3.org/1999/xlink" width="310.45" height="64.33" viewBox="0 0 310.45 64.33"><defs><linearGradient id="a" x1="-0.266" x2="1.062" y2="0.831" gradientUnits="objectBoundingBox"><stop offset="0" stop-color="#238dbc"/><stop offset="1" stop-color="#45bce9"/></linearGradient></defs><path d="M34.65-27.16a14.093,14.093,0,0,1,6.055,4.48,12.275,12.275,0,0,1,2.345,7.77q0,8.33-4.76,11.62A19.447,19.447,0,0,1,26.95,0H9.52A4.134,4.134,0,0,1,6.475-1.225,4.134,4.134,0,0,1,5.25-4.27V-44.73a4.134,4.134,0,0,1,1.225-3.045A4.134,4.134,0,0,1,9.52-49H27.16q13.3,0,13.3,12.46a10.3,10.3,0,0,1-1.5,5.565A10.417,10.417,0,0,1,34.65-27.16ZM31.36-35a5.847,5.847,0,0,0-1.435-4.305A5.442,5.442,0,0,0,25.9-40.74H14.35v10.92H26.11a5.359,5.359,0,0,0,3.675-1.4A4.8,4.8,0,0,0,31.36-35ZM26.95-8.05A7.2,7.2,0,0,0,32.1-9.8a6.692,6.692,0,0,0,1.855-5.11q0-4.13-2.17-5.39a10.438,10.438,0,0,0-5.32-1.26H14.35V-8.05Zm51.24-29.4a4.019,4.019,0,0,1,3.01,1.225,4.2,4.2,0,0,1,1.19,3.045V-3.43q0,9.1-4.9,13.265T64.4,14a31.753,31.753,0,0,1-4.865-.385A18.248,18.248,0,0,1,55.51,12.6q-3.43-1.47-3.43-4.06a3.6,3.6,0,0,1,.21-1.12,4.339,4.339,0,0,1,1.435-2.345,3.476,3.476,0,0,1,2.205-.8,4.178,4.178,0,0,1,1.33.21q.49.21,1.715.7a17.649,17.649,0,0,0,2.59.8A12.569,12.569,0,0,0,64.4,6.3q4.97,0,7.315-2.135T74.06-3.15v-.7Q70.42.7,62.72.7a12.079,12.079,0,0,1-6.44-1.715,11.582,11.582,0,0,1-4.34-4.76A15.223,15.223,0,0,1,50.4-12.74V-33.18a4.2,4.2,0,0,1,1.19-3.045A4.019,4.019,0,0,1,54.6-37.45a4.019,4.019,0,0,1,3.01,1.225A4.2,4.2,0,0,1,58.8-33.18v17.92q0,4.41,1.925,6.335A7.637,7.637,0,0,0,66.36-7a7.334,7.334,0,0,0,5.635-2.135,8.642,8.642,0,0,0,2-6.125V-33.18a4.2,4.2,0,0,1,1.19-3.045A4.019,4.019,0,0,1,78.19-37.45ZM109.55-7.91a2.329,2.329,0,0,1,1.785.945,3.7,3.7,0,0,1,.8,2.485A3.74,3.74,0,0,1,110.075-1.3,8.579,8.579,0,0,1,105.42,0a13.57,13.57,0,0,1-7.315-1.855Q95.13-3.71,95.13-9.73V-29.05H91.91a3.8,3.8,0,0,1-2.8-1.12,3.8,3.8,0,0,1-1.12-2.8,3.6,3.6,0,0,1,1.12-2.695,3.864,3.864,0,0,1,2.8-1.085h3.22v-4.48a4.134,4.134,0,0,1,1.225-3.045A4.134,4.134,0,0,1,99.4-45.5a3.936,3.936,0,0,1,2.94,1.225,4.2,4.2,0,0,1,1.19,3.045v4.48h4.97a3.8,3.8,0,0,1,2.8,1.12,3.8,3.8,0,0,1,1.12,2.8,3.6,3.6,0,0,1-1.12,2.695,3.864,3.864,0,0,1-2.8,1.085h-4.97v18.97a2.679,2.679,0,0,0,.77,2.135,3.105,3.105,0,0,0,2.1.665,6.007,6.007,0,0,0,1.54-.28A4.182,4.182,0,0,1,109.55-7.91ZM153.37-19.6a3.594,3.594,0,0,1-1.33,2.73,4.453,4.453,0,0,1-2.94,1.05H126a10.555,10.555,0,0,0,3.85,6.475A10.763,10.763,0,0,0,136.64-7a15.048,15.048,0,0,0,4.48-.525,11.668,11.668,0,0,0,2.555-1.12q.945-.595,1.295-.805a5.34,5.34,0,0,1,2.38-.63,3.437,3.437,0,0,1,2.52,1.05,3.358,3.358,0,0,1,1.05,2.45,4.369,4.369,0,0,1-1.96,3.43,16.725,16.725,0,0,1-5.25,2.73A20.512,20.512,0,0,1,137.06.7a20.647,20.647,0,0,1-10.255-2.45,17.1,17.1,0,0,1-6.755-6.755,19.7,19.7,0,0,1-2.38-9.7,21.462,21.462,0,0,1,2.52-10.57,17.892,17.892,0,0,1,6.65-6.965,17.188,17.188,0,0,1,8.82-2.415,16.352,16.352,0,0,1,8.715,2.52,18.838,18.838,0,0,1,6.545,6.79A18.253,18.253,0,0,1,153.37-19.6ZM135.66-30.45q-8.12,0-9.59,7.63h18.34v-.49a7.236,7.236,0,0,0-2.87-5.04A9.084,9.084,0,0,0,135.66-30.45ZM190.12-49a4.312,4.312,0,0,1,3.08,1.12,3.85,3.85,0,0,1,1.19,2.94,3.739,3.739,0,0,1-1.19,2.9,4.394,4.394,0,0,1-3.08,1.085H179.13V-4.27a3.971,3.971,0,0,1-1.33,3.045A4.674,4.674,0,0,1,174.51,0a4.428,4.428,0,0,1-3.22-1.225,4.075,4.075,0,0,1-1.26-3.045V-40.95H159.04a4.312,4.312,0,0,1-3.08-1.12,3.85,3.85,0,0,1-1.19-2.94,3.714,3.714,0,0,1,1.225-2.87A4.343,4.343,0,0,1,159.04-49ZM208.95-4.27a4.2,4.2,0,0,1-1.19,3.045A4.019,4.019,0,0,1,204.75,0a4.019,4.019,0,0,1-3.01-1.225,4.2,4.2,0,0,1-1.19-3.045V-33.18a4.2,4.2,0,0,1,1.19-3.045,4.019,4.019,0,0,1,3.01-1.225,4.019,4.019,0,0,1,3.01,1.225,4.2,4.2,0,0,1,1.19,3.045ZM204.68-42a5.561,5.561,0,0,1-3.36-.77,3.289,3.289,0,0,1-.98-2.73v-1.33a3.173,3.173,0,0,1,1.05-2.73,5.757,5.757,0,0,1,3.36-.77,5.713,5.713,0,0,1,3.43.77,3.289,3.289,0,0,1,.98,2.73v1.33a3.216,3.216,0,0,1-1.015,2.765A6.112,6.112,0,0,1,204.68-42Zm56.07,3.85q6.93,0,9.59,4.235T273-22.19V-4.27a4.2,4.2,0,0,1-1.19,3.045A4.019,4.019,0,0,1,268.8,0a4.019,4.019,0,0,1-3.01-1.225A4.2,4.2,0,0,1,264.6-4.27V-22.19a10.614,10.614,0,0,0-1.505-6.055q-1.5-2.2-5.285-2.205a8,8,0,0,0-6.125,2.345,8.294,8.294,0,0,0-2.205,5.915V-4.27a4.2,4.2,0,0,1-1.19,3.045A4.019,4.019,0,0,1,245.28,0a4.019,4.019,0,0,1-3.01-1.225,4.2,4.2,0,0,1-1.19-3.045V-22.19a10.614,10.614,0,0,0-1.505-6.055q-1.505-2.2-5.285-2.205a8,8,0,0,0-6.125,2.345,8.294,8.294,0,0,0-2.205,5.915V-4.27a4.2,4.2,0,0,1-1.19,3.045A4.019,4.019,0,0,1,221.76,0a4.019,4.019,0,0,1-3.01-1.225,4.2,4.2,0,0,1-1.19-3.045V-33.18a4.2,4.2,0,0,1,1.19-3.045,4.019,4.019,0,0,1,3.01-1.225,4.019,4.019,0,0,1,3.01,1.225,4.2,4.2,0,0,1,1.19,3.045v1.12a17.1,17.1,0,0,1,4.795-4.305,12.122,12.122,0,0,1,6.475-1.785q8.82,0,11.27,7.7a16.486,16.486,0,0,1,4.865-5.32A12.2,12.2,0,0,1,260.75-38.15ZM315.7-19.6a3.594,3.594,0,0,1-1.33,2.73,4.453,4.453,0,0,1-2.94,1.05h-23.1a10.555,10.555,0,0,0,3.85,6.475A10.763,10.763,0,0,0,298.97-7a15.048,15.048,0,0,0,4.48-.525A11.667,11.667,0,0,0,306-8.645q.945-.595,1.3-.805a5.34,5.34,0,0,1,2.38-.63,3.437,3.437,0,0,1,2.52,1.05,3.358,3.358,0,0,1,1.05,2.45,4.369,4.369,0,0,1-1.96,3.43,16.725,16.725,0,0,1-5.25,2.73A20.512,20.512,0,0,1,299.39.7a20.647,20.647,0,0,1-10.255-2.45,17.1,17.1,0,0,1-6.755-6.755A19.7,19.7,0,0,1,280-18.2a21.462,21.462,0,0,1,2.52-10.57,17.892,17.892,0,0,1,6.65-6.965,17.188,17.188,0,0,1,8.82-2.415,16.352,16.352,0,0,1,8.715,2.52,18.837,18.837,0,0,1,6.545,6.79A18.253,18.253,0,0,1,315.7-19.6ZM297.99-30.45q-8.12,0-9.59,7.63h18.34v-.49a7.236,7.236,0,0,0-2.87-5.04A9.084,9.084,0,0,0,297.99-30.45Z" transform="translate(-5.25 50.33)" fill="url(#a)"/></svg>