<svg xmlns="http://www.w3.org/2000/svg" xmlns:xlink="http://www.w3.org/1999/xlink" width="291.76" height="52.5" viewBox="0 0 291.76 52.5"><defs><linearGradient id="a" x1="-0.125" y1="-0.096" x2="1.154" y2="1.319" gradientUnits="objectBoundingBox"><stop offset="0" stop-color="#b0bfde"/><stop offset="1" stop-color="#889cc4"/></linearGradient></defs><path d="M32.97-8.05a4.134,4.134,0,0,1,3.045,1.225A3.892,3.892,0,0,1,37.24-3.99a3.714,3.714,0,0,1-1.225,2.87A4.343,4.343,0,0,1,32.97,0H9.52A4.134,4.134,0,0,1,6.475-1.225,4.134,4.134,0,0,1,5.25-4.27V-44.73a4.134,4.134,0,0,1,1.225-3.045A4.134,4.134,0,0,1,9.52-49H32.97a4.267,4.267,0,0,1,3.045,1.155A3.906,3.906,0,0,1,37.24-44.87a3.657,3.657,0,0,1-1.19,2.835,4.394,4.394,0,0,1-3.08,1.085H14v11.9H29.82A4.267,4.267,0,0,1,32.865-27.9,3.906,3.906,0,0,1,34.09-24.92a3.657,3.657,0,0,1-1.19,2.835A4.394,4.394,0,0,1,29.82-21H14V-8.05ZM53.69-4.27a4.134,4.134,0,0,1-1.225,3.045A4.134,4.134,0,0,1,49.42,0a3.936,3.936,0,0,1-2.94-1.225A4.2,4.2,0,0,1,45.29-4.27V-47.53a4.134,4.134,0,0,1,1.225-3.045A4.134,4.134,0,0,1,49.56-51.8a3.936,3.936,0,0,1,2.94,1.225,4.2,4.2,0,0,1,1.19,3.045ZM92.54-40.95v12.32h15.12a4.267,4.267,0,0,1,3.045,1.155A3.906,3.906,0,0,1,111.93-24.5a3.705,3.705,0,0,1-1.225,2.73,4.2,4.2,0,0,1-3.045,1.19H92.54V-4.27a4.021,4.021,0,0,1-1.295,3.045A4.287,4.287,0,0,1,88.2,0a4.378,4.378,0,0,1-3.185-1.19A4.1,4.1,0,0,1,83.79-4.27V-44.73a4.134,4.134,0,0,1,1.225-3.045A4.134,4.134,0,0,1,88.06-49h22.75a4.267,4.267,0,0,1,3.045,1.155,3.906,3.906,0,0,1,1.225,2.975,3.7,3.7,0,0,1-1.225,2.73,4.2,4.2,0,0,1-3.045,1.19Zm56.63,3.5a4.019,4.019,0,0,1,3.01,1.225,4.2,4.2,0,0,1,1.19,3.045V-15.4q0,7.56-4.165,11.83T137.34.7q-7.7,0-11.83-4.27T121.38-15.4V-33.18a4.2,4.2,0,0,1,1.19-3.045,4.019,4.019,0,0,1,3.01-1.225,4.019,4.019,0,0,1,3.01,1.225,4.2,4.2,0,0,1,1.19,3.045V-15.4q0,4.27,1.89,6.335T137.34-7q3.85,0,5.74-2.065t1.89-6.335V-33.18a4.2,4.2,0,0,1,1.19-3.045A4.019,4.019,0,0,1,149.17-37.45ZM180.53-7.91a2.329,2.329,0,0,1,1.785.945,3.7,3.7,0,0,1,.8,2.485A3.74,3.74,0,0,1,181.055-1.3,8.579,8.579,0,0,1,176.4,0a13.57,13.57,0,0,1-7.315-1.855Q166.11-3.71,166.11-9.73V-29.05h-3.22a3.8,3.8,0,0,1-2.8-1.12,3.8,3.8,0,0,1-1.12-2.8,3.6,3.6,0,0,1,1.12-2.695,3.864,3.864,0,0,1,2.8-1.085h3.22v-4.48a4.134,4.134,0,0,1,1.225-3.045A4.134,4.134,0,0,1,170.38-45.5a3.936,3.936,0,0,1,2.94,1.225,4.2,4.2,0,0,1,1.19,3.045v4.48h4.97a3.8,3.8,0,0,1,2.8,1.12,3.8,3.8,0,0,1,1.12,2.8,3.6,3.6,0,0,1-1.12,2.695,3.864,3.864,0,0,1-2.8,1.085h-4.97v18.97a2.679,2.679,0,0,0,.77,2.135,3.105,3.105,0,0,0,2.1.665,6.006,6.006,0,0,0,1.54-.28A4.182,4.182,0,0,1,180.53-7.91Zm38.36-29.54a4.019,4.019,0,0,1,3.01,1.225,4.2,4.2,0,0,1,1.19,3.045V-15.4q0,7.56-4.165,11.83T207.06.7q-7.7,0-11.83-4.27T191.1-15.4V-33.18a4.2,4.2,0,0,1,1.19-3.045,4.019,4.019,0,0,1,3.01-1.225,4.019,4.019,0,0,1,3.01,1.225,4.2,4.2,0,0,1,1.19,3.045V-15.4q0,4.27,1.89,6.335T207.06-7q3.85,0,5.74-2.065t1.89-6.335V-33.18a4.2,4.2,0,0,1,1.19-3.045A4.019,4.019,0,0,1,218.89-37.45Zm32.76-.7a5.353,5.353,0,0,1,3.535,1.19,3.548,3.548,0,0,1,1.435,2.8,4.337,4.337,0,0,1-1.12,3.255,3.693,3.693,0,0,1-2.66,1.085,6.984,6.984,0,0,1-2.38-.49q-.21-.07-.945-.28a5.71,5.71,0,0,0-1.575-.21,6.22,6.22,0,0,0-3.5,1.12,8.172,8.172,0,0,0-2.765,3.4,12.5,12.5,0,0,0-1.085,5.425V-4.27a4.2,4.2,0,0,1-1.19,3.045A4.019,4.019,0,0,1,236.39,0a4.019,4.019,0,0,1-3.01-1.225,4.2,4.2,0,0,1-1.19-3.045V-33.18a4.2,4.2,0,0,1,1.19-3.045,4.019,4.019,0,0,1,3.01-1.225,4.019,4.019,0,0,1,3.01,1.225,4.2,4.2,0,0,1,1.19,3.045v.91a10.6,10.6,0,0,1,4.62-4.375A14.2,14.2,0,0,1,251.65-38.15Zm45.36,19.46a20.006,20.006,0,0,1-2.52,10.045,17.8,17.8,0,0,1-6.9,6.9A19.363,19.363,0,0,1,277.97.7a19.306,19.306,0,0,1-9.66-2.45,17.873,17.873,0,0,1-6.86-6.9,20.006,20.006,0,0,1-2.52-10.045,20.006,20.006,0,0,1,2.52-10.045,18.124,18.124,0,0,1,6.86-6.93,19.093,19.093,0,0,1,9.66-2.485,19.149,19.149,0,0,1,9.625,2.485,18.052,18.052,0,0,1,6.9,6.93A20.006,20.006,0,0,1,297.01-18.69Zm-8.4,0a12.829,12.829,0,0,0-1.435-6.125,10.559,10.559,0,0,0-3.85-4.165,10.1,10.1,0,0,0-5.355-1.47,10.1,10.1,0,0,0-5.355,1.47,10.559,10.559,0,0,0-3.85,4.165,12.829,12.829,0,0,0-1.435,6.125,12.624,12.624,0,0,0,1.435,6.09,10.618,10.618,0,0,0,3.85,4.13A10.1,10.1,0,0,0,277.97-7a10.1,10.1,0,0,0,5.355-1.47,10.618,10.618,0,0,0,3.85-4.13A12.624,12.624,0,0,0,288.61-18.69Z" transform="translate(-5.25 51.8)" fill="url(#a)"/></svg>