<svg xmlns="http://www.w3.org/2000/svg" xmlns:xlink="http://www.w3.org/1999/xlink" width="358.865" height="48.75" viewBox="0 0 358.865 48.75"><defs><linearGradient id="a" y1="0.052" x2="1.041" y2="1.144" gradientUnits="objectBoundingBox"><stop offset="0" stop-color="#b0bfde"/><stop offset="1" stop-color="#889cc4"/></linearGradient></defs><path d="M30.615-7.475a3.839,3.839,0,0,1,2.827,1.137A3.614,3.614,0,0,1,34.58-3.705,3.449,3.449,0,0,1,33.443-1.04,4.033,4.033,0,0,1,30.615,0H8.84A3.839,3.839,0,0,1,6.013-1.138,3.839,3.839,0,0,1,4.875-3.965v-37.57a3.839,3.839,0,0,1,1.138-2.827A3.839,3.839,0,0,1,8.84-45.5H30.615a3.963,3.963,0,0,1,2.827,1.073,3.627,3.627,0,0,1,1.138,2.763,3.4,3.4,0,0,1-1.1,2.632,4.08,4.08,0,0,1-2.86,1.007H13v11.05H27.69A3.963,3.963,0,0,1,30.518-25.9a3.627,3.627,0,0,1,1.137,2.763,3.4,3.4,0,0,1-1.1,2.632A4.08,4.08,0,0,1,27.69-19.5H13V-7.475Zm19.24,3.51a3.839,3.839,0,0,1-1.138,2.828A3.839,3.839,0,0,1,45.89,0a3.655,3.655,0,0,1-2.73-1.138,3.9,3.9,0,0,1-1.1-2.828v-40.17a3.839,3.839,0,0,1,1.138-2.827A3.839,3.839,0,0,1,46.02-48.1a3.655,3.655,0,0,1,2.73,1.138,3.9,3.9,0,0,1,1.1,2.827ZM93.86-41.21a3.581,3.581,0,0,0-3.12,1.267,4.638,4.638,0,0,0-.91,2.763v3.055h5.915a3.588,3.588,0,0,1,2.6,1.008,3.421,3.421,0,0,1,1.04,2.567,3.421,3.421,0,0,1-1.04,2.567,3.588,3.588,0,0,1-2.6,1.007H89.83v23.01a3.9,3.9,0,0,1-1.105,2.828A3.732,3.732,0,0,1,85.93,0a3.732,3.732,0,0,1-2.795-1.138A3.9,3.9,0,0,1,82.03-3.965v-23.01H78.52a3.588,3.588,0,0,1-2.6-1.007,3.421,3.421,0,0,1-1.04-2.567,3.421,3.421,0,0,1,1.04-2.567,3.588,3.588,0,0,1,2.6-1.008h3.51v-2.99a10.24,10.24,0,0,1,3.348-7.93Q88.725-48.1,95.03-48.1a8.623,8.623,0,0,1,4.193.975,3.193,3.193,0,0,1,1.787,2.99,3.566,3.566,0,0,1-.91,2.535,2.911,2.911,0,0,1-2.21.975,3.818,3.818,0,0,1-.682-.065q-.358-.065-.748-.13A11.108,11.108,0,0,0,93.86-41.21Zm36.205,6.435a3.732,3.732,0,0,1,2.795,1.137,3.9,3.9,0,0,1,1.1,2.828V-14.3q0,7.02-3.867,10.985T119.08.65q-7.15,0-10.985-3.965T104.26-14.3V-30.81a3.9,3.9,0,0,1,1.105-2.828,3.732,3.732,0,0,1,2.795-1.137,3.732,3.732,0,0,1,2.795,1.137,3.9,3.9,0,0,1,1.105,2.828V-14.3q0,3.965,1.755,5.883A6.788,6.788,0,0,0,119.08-6.5a6.878,6.878,0,0,0,5.33-1.918q1.755-1.918,1.755-5.883V-30.81a3.9,3.9,0,0,1,1.1-2.828A3.732,3.732,0,0,1,130.065-34.775Zm29.12,27.43a2.162,2.162,0,0,1,1.658.877,3.436,3.436,0,0,1,.747,2.308A3.473,3.473,0,0,1,159.673-1.2,7.967,7.967,0,0,1,155.35,0a12.6,12.6,0,0,1-6.793-1.723q-2.762-1.722-2.762-7.313v-17.94h-2.99a3.528,3.528,0,0,1-2.6-1.04,3.528,3.528,0,0,1-1.04-2.6,3.343,3.343,0,0,1,1.04-2.5,3.588,3.588,0,0,1,2.6-1.008h2.99v-4.16a3.839,3.839,0,0,1,1.137-2.827,3.839,3.839,0,0,1,2.828-1.138,3.655,3.655,0,0,1,2.73,1.138,3.9,3.9,0,0,1,1.1,2.827v4.16h4.615a3.528,3.528,0,0,1,2.6,1.04,3.528,3.528,0,0,1,1.04,2.6,3.343,3.343,0,0,1-1.04,2.5,3.588,3.588,0,0,1-2.6,1.007H153.6V-9.36a2.488,2.488,0,0,0,.715,1.983,2.884,2.884,0,0,0,1.95.618,5.577,5.577,0,0,0,1.43-.26A3.883,3.883,0,0,1,159.185-7.345Zm35.62-27.43a3.732,3.732,0,0,1,2.795,1.137,3.9,3.9,0,0,1,1.1,2.828V-14.3q0,7.02-3.867,10.985T183.82.65q-7.15,0-10.985-3.965T169-14.3V-30.81a3.9,3.9,0,0,1,1.1-2.828,3.732,3.732,0,0,1,2.795-1.137,3.732,3.732,0,0,1,2.795,1.137,3.9,3.9,0,0,1,1.1,2.828V-14.3q0,3.965,1.755,5.883A6.788,6.788,0,0,0,183.82-6.5a6.877,6.877,0,0,0,5.33-1.918Q190.9-10.335,190.9-14.3V-30.81a3.9,3.9,0,0,1,1.1-2.828A3.732,3.732,0,0,1,194.8-34.775Zm30.42-.65a4.971,4.971,0,0,1,3.283,1.1,3.294,3.294,0,0,1,1.333,2.6A4.027,4.027,0,0,1,228.8-28.7a3.429,3.429,0,0,1-2.47,1.007,6.485,6.485,0,0,1-2.21-.455q-.2-.065-.878-.26a5.3,5.3,0,0,0-1.462-.2,5.776,5.776,0,0,0-3.25,1.04,7.588,7.588,0,0,0-2.568,3.153,11.607,11.607,0,0,0-1.008,5.038V-3.965a3.9,3.9,0,0,1-1.1,2.828A3.732,3.732,0,0,1,211.055,0a3.732,3.732,0,0,1-2.795-1.138,3.9,3.9,0,0,1-1.1-2.828V-30.81a3.9,3.9,0,0,1,1.1-2.828,3.732,3.732,0,0,1,2.795-1.137,3.732,3.732,0,0,1,2.795,1.137,3.9,3.9,0,0,1,1.1,2.828v.845a9.847,9.847,0,0,1,4.29-4.062A13.189,13.189,0,0,1,225.225-35.425Zm42.12,18.07a18.577,18.577,0,0,1-2.34,9.328,16.531,16.531,0,0,1-6.4,6.4A17.98,17.98,0,0,1,249.665.65a17.927,17.927,0,0,1-8.97-2.275,16.6,16.6,0,0,1-6.37-6.4,18.577,18.577,0,0,1-2.34-9.328,18.577,18.577,0,0,1,2.34-9.327,16.829,16.829,0,0,1,6.37-6.435,17.729,17.729,0,0,1,8.97-2.307,17.781,17.781,0,0,1,8.937,2.307,16.762,16.762,0,0,1,6.4,6.435A18.577,18.577,0,0,1,267.345-17.355Zm-7.8,0a11.913,11.913,0,0,0-1.332-5.687,9.8,9.8,0,0,0-3.575-3.868,9.378,9.378,0,0,0-4.973-1.365,9.378,9.378,0,0,0-4.973,1.365,9.805,9.805,0,0,0-3.575,3.868,11.913,11.913,0,0,0-1.333,5.688,11.722,11.722,0,0,0,1.333,5.655,9.859,9.859,0,0,0,3.575,3.835A9.378,9.378,0,0,0,249.665-6.5a9.378,9.378,0,0,0,4.973-1.365,9.859,9.859,0,0,0,3.575-3.835A11.722,11.722,0,0,0,259.545-17.355ZM320.19-48.1a3.788,3.788,0,0,1,2.8,1.1,3.87,3.87,0,0,1,1.1,2.86v40.17a3.9,3.9,0,0,1-1.1,2.828A3.732,3.732,0,0,1,320.19,0a3.68,3.68,0,0,1-2.762-1.105,4.088,4.088,0,0,1-1.138-2.8A13.338,13.338,0,0,1,311.9-.683,13.226,13.226,0,0,1,306.085.65a14.86,14.86,0,0,1-8.125-2.308,16.178,16.178,0,0,1-5.753-6.4,19.979,19.979,0,0,1-2.113-9.3,20.437,20.437,0,0,1,2.08-9.327,15.981,15.981,0,0,1,5.688-6.435,14.477,14.477,0,0,1,7.962-2.307,15.056,15.056,0,0,1,5.85,1.137A15.363,15.363,0,0,1,316.29-31.4v-12.74a3.9,3.9,0,0,1,1.105-2.827A3.732,3.732,0,0,1,320.19-48.1ZM307.06-6.5a8.68,8.68,0,0,0,6.89-3.088,11.464,11.464,0,0,0,2.665-7.768,11.589,11.589,0,0,0-2.665-7.8,8.641,8.641,0,0,0-6.89-3.12,8.572,8.572,0,0,0-6.825,3.12,11.589,11.589,0,0,0-2.665,7.8A11.553,11.553,0,0,0,300.2-9.588,8.584,8.584,0,0,0,307.06-6.5Zm56.68-11.7a3.338,3.338,0,0,1-1.235,2.535,4.135,4.135,0,0,1-2.73.975h-21.45A9.8,9.8,0,0,0,341.9-8.678,9.995,9.995,0,0,0,348.205-6.5a13.974,13.974,0,0,0,4.16-.488,10.834,10.834,0,0,0,2.372-1.04q.877-.552,1.2-.748a4.959,4.959,0,0,1,2.21-.585,3.191,3.191,0,0,1,2.34.975,3.118,3.118,0,0,1,.975,2.275,4.057,4.057,0,0,1-1.82,3.185A15.53,15.53,0,0,1,354.77-.39,19.046,19.046,0,0,1,348.6.65a19.172,19.172,0,0,1-9.522-2.275A15.88,15.88,0,0,1,332.8-7.9a18.291,18.291,0,0,1-2.21-9,19.929,19.929,0,0,1,2.34-9.815,16.614,16.614,0,0,1,6.175-6.468,15.961,15.961,0,0,1,8.19-2.242,15.184,15.184,0,0,1,8.092,2.34,17.492,17.492,0,0,1,6.077,6.3A16.949,16.949,0,0,1,363.74-18.2ZM347.3-28.275q-7.54,0-8.9,7.085h17.03v-.455a6.719,6.719,0,0,0-2.665-4.68A8.435,8.435,0,0,0,347.3-28.275Z" transform="translate(-4.875 48.1)" fill="url(#a)"/></svg>